:SAMPLES-PER-SECOND 30
:FULLY-SPECIFIED
:DEGREES
587
root  -63.3482 39.4345 0.171868 -4.9548 -68.6699 -5.41792
RightUpLeg  2.53153 -5.72921 2.2343
RightLeg  41.4935 23.5346 20.5391
RightFoot  -9.92805 -0.34726 19.7104
RightToes  5.82063e-011 0 -3.6325e-017
Spine  15.577 -1.0802 6.25256
Spine1  9.93163 1.83685 -9.66385
HEad  -25.9942 17.5771 -15.0693
LeftShoulder1  0.903583 0.932209 -29.0301
LeftArm  5.47336 10.3635 -41.7677
LeftForeArm  12.5432 -28.1145 -5.39448
LeftHand  -0.0508447 2.94144 1.74046
RightShoulder  0.0927919 -3.18021 25.0188
RightArm  26.6405 2.43818 51.4288
RightForeArm  10.5176 12.9047 8.58859
RightHand  -0.0259635 0.983243 -0.57565
LeftUpLeg  -11.2814 -4.294 -7.24093
LeftLeg  23.602 -28.0565 -12.3326
LeftFoot  8.91411 -0.756552 3.96303
LeftToes  1.81573e-012 2.54609e-010 -3.45981e-011
588
root  -62.6446 39.3448 0.341588 -5.37134 -63.061 -4.04904
RightUpLeg  4.54371 -7.90435 2.70653
RightLeg  35.2293 22.6959 16.1541
RightFoot  -12.7457 -0.0646459 3.20613
RightToes  5.82063e-011 0 -3.6325e-017
Spine  14.5239 -0.952476 8.52592
Spine1  9.03972 2.45043 -9.47568
HEad  -25.7777 18.1449 -16.0597
LeftShoulder1  0.767746 1.32978 -29.2508
LeftArm  5.34266 10.5432 -40.7366
LeftForeArm  12.1129 -28.7509 -5.56781
LeftHand  -0.103278 1.69469 3.04084
RightShoulder  0.0506134 -3.31412 24.7826
RightArm  27.9339 1.68914 50.5678
RightForeArm  9.28271 13.9108 8.20752
RightHand  -0.0468302 1.01697 -0.943018
LeftUpLeg  -11.9456 -5.94294 -8.91228
LeftLeg  21.6164 -31.4265 -12.579
LeftFoot  10.4666 0.0145526 -0.391244
LeftToes  1.81573e-012 2.54609e-010 -3.45981e-011
589
root  -61.779 39.023 0.429364 -4.40932 -57.3422 -4.43806
RightUpLeg  5.24739 -11.6307 4.01167
RightLeg  30.1302 16.9338 10.1852
RightFoot  -16.206 -0.395 -7.3013
RightToes  5.82063e-011 0 -3.6325e-017
Spine  14.1781 -0.547917 11.3314
Spine1  8.49197 3.15107 -9.32356
HEad  -26.3424 17.9768 -18.0099
LeftShoulder1  0.59936 1.84379 -29.9813
LeftArm  4.90153 8.99038 -40.3845
LeftForeArm  12.5395 -28.1882 -5.4125
LeftHand  -0.145273 0.0287112 3.11678
RightShoulder  0.0217367 -3.40503 24.2421
RightArm  28.037 1.51516 49.208
RightForeArm  6.69164 14.7296 7.80419
RightHand  -0.101994 1.33175 -1.89686
LeftUpLeg  -13.8432 -6.60402 -9.79109
LeftLeg  22.5486 -34.5051 -14.2495
LeftFoot  9.38541 1.42475 -8.25896
LeftToes  1.81573e-012 2.54609e-010 -3.45981e-011
590
root  -60.8671 38.781 0.480224 -2.74055 -52.7992 -6.25485
RightUpLeg  4.94034 -11.3738 6.69432
RightLeg  26.3908 9.25381 4.68451
RightFoot  -18.8455 -0.719653 -9.06123
RightToes  5.82063e-011 0 -3.6325e-017
Spine  14.9725 -0.232415 15.5416
Spine1  7.86404 4.30307 -10.6161
HEad  -27.9273 18.156 -19.7598
LeftShoulder1  0.533776 2.01081 -29.6457
LeftArm  2.80439 7.83131 -41.4319
LeftForeArm  12.6365 -27.1924 -5.1768
LeftHand  -0.08277 2.16099 2.80531
RightShoulder  -0.0360207 -3.59347 24.7699
RightArm  26.4675 2.80626 47.3599
RightForeArm  6.50271 14.1314 7.91621
RightHand  -0.110297 1.68519 -1.96605
LeftUpLeg  -15.1502 -3.34329 -9.34806
LeftLeg  22.7899 -38.0798 -15.6567
LeftFoot  5.86254 3.39776 -22.593
LeftToes  1.81573e-012 2.54609e-010 -3.45981e-011
591
root  -59.9755 38.6421 0.549789 -3.01151 -48.4719 -5.67931
RightUpLeg  3.51141 -11.1558 6.92457
RightLeg  25.8345 4.22199 1.98456
RightFoot  -20.3654 -0.87756 -9.37196
RightToes  5.82063e-011 0 -3.6325e-017
Spine  15.8121 -0.0206769 17.3869
Spine1  7.14021 4.90036 -11.2483
HEad  -29.5876 20.2855 -21.1972
LeftShoulder1  0.473169 2.17362 -29.4626
LeftArm  0.863923 7.02049 -42.5519
LeftForeArm  10.4088 -25.0159 -4.79281
LeftHand  -0.0907182 3.52705 4.51485
RightShoulder  0.0333551 -3.36828 24.4849
RightArm  23.0365 4.77668 46.6024
RightForeArm  8.3398 11.6607 8.59913
RightHand  -0.104552 1.67127 -1.88281
LeftUpLeg  -16.0403 1.28897 -10.4533
LeftLeg  20.9359 -37.7601 -14.2856
LeftFoot  3.0603 4.4211 -33.9422
LeftToes  1.81573e-012 2.54609e-010 -3.45981e-011
592
root  -59.0888 38.7944 0.626275 -3.96106 -42.7836 -4.85307
RightUpLeg  3.15075 -13.9044 5.44872
RightLeg  24.8972 2.13434 0.832538
RightFoot  -19.8447 -0.713757 -7.76613
RightToes  5.82063e-011 0 -3.6325e-017
Spine  16.8495 -0.498483 17.9259
Spine1  6.3421 4.48119 -10.8806
HEad  -30.5185 22.9863 -22.1446
LeftShoulder1  0.492733 2.12939 -29.761
LeftArm  0.130381 6.40511 -42.6919
LeftForeArm  8.07744 -21.9688 -4.61773
LeftHand  -0.147763 2.49834 5.50521
RightShoulder  0.113434 -3.09968 23.7542
RightArm  19.8574 6.19811 46.7335
RightForeArm  11.4855 9.46995 8.83297
RightHand  -0.1254 0.922116 -2.40329
LeftUpLeg  -16.1134 2.61028 -11.3093
LeftLeg  18.7397 -34.0552 -11.7196
LeftFoot  1.83048 3.22283 -27.4612
LeftToes  1.81573e-012 2.54609e-010 -3.45981e-011
593
root  -58.301 39.0752 0.760107 -4.48923 -37.1529 -4.48305
RightUpLeg  3.88743 -17.4657 3.57617
RightLeg  22.613 1.31233 0.528354
RightFoot  -18.2872 -0.488423 -5.98913
RightToes  5.82063e-011 0 -3.6325e-017
Spine  17.557 -0.566144 17.6297
Spine1  5.46124 4.02821 -9.44392
HEad  -30.6591 25.4819 -22.51
LeftShoulder1  0.469927 2.22999 -30.7789
LeftArm  -0.844745 5.53865 -42.3649
LeftForeArm  7.41255 -18.1079 -5.43513
LeftHand  -0.15358 2.93683 6.88752
RightShoulder  0.147942 -2.97746 23.2724
RightArm  18.5746 6.65804 46.4738
RightForeArm  13.5179 8.65241 8.74298
RightHand  -0.122614 0.577508 -2.45933
LeftUpLeg  -15.643 3.01462 -10.6883
LeftLeg  15.7596 -28.1436 -8.65125
LeftFoot  -0.445517 2.26172 -23.4668
LeftToes  1.81573e-012 2.54609e-010 -3.45981e-011
